<svg width="1em" height="1em" viewBox="0 0 20 20" fill="none" xmlns="http://www.w3.org/2000/svg">
<rect x="1.5" y="0.5" width="11" height="11" rx="1.5" stroke="#666666" fill="transparent"/>
<rect x="7.4" y="8.4" width="11.2" height="11.2" rx="1.6" fill="#666666" stroke="#666666" stroke-width="0.8"/>
<path d="M6.706 3.056H7.294V4.094H9.43V6.992H8.86V6.65H7.294V8.66H6.706V6.65H5.146V6.992H4.576V4.094H6.706V3.056ZM5.146 6.092H6.706V4.652H5.146V6.092ZM7.294 6.092H8.86V4.652H7.294V6.092Z" fill="#666666"/>
<path d="M9.42 11.716H12.498V12.274H10.074V13.522H12.354V14.08H10.074V15.442H12.6V16H9.42V11.716ZM14.7758 12.814C15.5438 12.814 15.9338 13.234 15.9338 14.086V16H15.2978V14.14C15.2978 13.612 15.0518 13.348 14.5718 13.348C14.3918 13.348 14.2298 13.408 14.0978 13.54C13.9538 13.684 13.8638 13.882 13.8398 14.134V16H13.2038V12.898H13.8398V13.282C13.9598 13.126 14.0978 13.012 14.2538 12.934C14.4098 12.85 14.5838 12.814 14.7758 12.814Z" fill="white"/>
</svg>
